<svg xmlns="http://www.w3.org/2000/svg" viewBox="0 0 64 64" fill="#0d9488">
  <defs>
    <circle id="d" cx="32" cy="6" r="2.1"/>
  </defs>
  <use href="#d" transform="rotate(0 32 32)"/>
  <use href="#d" transform="rotate(15 32 32)"/>
  <use href="#d" transform="rotate(30 32 32)"/>
  <use href="#d" transform="rotate(45 32 32)"/>
  <use href="#d" transform="rotate(60 32 32)"/>
  <use href="#d" transform="rotate(75 32 32)"/>
  <use href="#d" transform="rotate(90 32 32)"/>
  <use href="#d" transform="rotate(105 32 32)"/>
  <use href="#d" transform="rotate(120 32 32)"/>
  <use href="#d" transform="rotate(135 32 32)"/>
  <use href="#d" transform="rotate(150 32 32)"/>
  <use href="#d" transform="rotate(165 32 32)"/>
  <use href="#d" transform="rotate(180 32 32)"/>
  <use href="#d" transform="rotate(195 32 32)"/>
  <use href="#d" transform="rotate(210 32 32)"/>
  <use href="#d" transform="rotate(225 32 32)"/>
  <use href="#d" transform="rotate(240 32 32)"/>
  <use href="#d" transform="rotate(255 32 32)"/>
  <use href="#d" transform="rotate(270 32 32)"/>
  <use href="#d" transform="rotate(285 32 32)"/>
  <use href="#d" transform="rotate(300 32 32)"/>
  <use href="#d" transform="rotate(315 32 32)"/>
  <use href="#d" transform="rotate(330 32 32)"/>
  <use href="#d" transform="rotate(345 32 32)"/>
  <circle cx="32" cy="32" r="3"/>
</svg>
